<svg xmlns="http://www.w3.org/2000/svg" width="1083" height="141" viewBox="0 0 1083 141">
  <defs>
    <style>
      .cls-1 {
        fill-rule: evenodd;
      }
    </style>
  </defs>
  <path id="training.stats" class="cls-1" d="M42.369,43.2h-16.8V54.166h16.8V86.953q0,10.619,5.571,15.255t18.173,4.638q11.609,0,13.71-.35V95.645q-1.634.175-12.66,0.175-5.425,0-8.342-2.275A7.793,7.793,0,0,1,55.9,87.011V54.166H80.348V43.2H55.67V24.939h-13.3V43.2Zm84.475-.408H100.066V52.941h13.651V96.52H101.291v10.151H145.8V96.52H126.785V78.2q0-11.084,5.747-16.947T149.3,55.391A29.06,29.06,0,0,1,159.863,57.2V42.44A25.457,25.457,0,0,0,150.7,41.1q-9.159,0-14.526,4.4t-7.351,13.622h-1.983V42.79Zm79.195,62.335a16.322,16.322,0,0,0,7.2-7.38h1.225v8.926h12.893V63.15q0-10.267-6.475-15.839T202.567,41.74q-10.792,0-17.881,5.017a18.024,18.024,0,0,0-7.963,13.3h13.3a9.245,9.245,0,0,1,4.259-5.425,15.178,15.178,0,0,1,7.934-1.925q5.6,0,8.664,2.684t3.062,7.642V68.4l-15.984.933q-11.436.7-17.5,5.63T174.39,88.47q0,8.635,5.571,13.943t14.672,5.309A23.916,23.916,0,0,0,206.039,105.125ZM190.87,94.216a7.981,7.981,0,0,1-3-6.563q0-8.633,12.134-9.334l13.943-.758v5.834a12.124,12.124,0,0,1-4.229,9.509,15.579,15.579,0,0,1-10.705,3.734A12.6,12.6,0,0,1,190.87,94.216Zm93.518-68.2a8.747,8.747,0,0,0,2.771-6.68,8.75,8.75,0,0,0-2.771-6.68,11.055,11.055,0,0,0-14.235,0,8.742,8.742,0,0,0-2.771,6.68,8.739,8.739,0,0,0,2.771,6.68A11.055,11.055,0,0,0,284.388,26.018Zm19.981,69.8H284.3V42.79H250.7V53.641h20.36V95.82H250v10.851h54.372V95.82Zm31.736,10.851V69.451q0-7.292,4.113-11.668a14.3,14.3,0,0,1,10.938-4.375q6.592,0,9.772,3.734t3.179,11.434v38.1H377.7V65.251q0-11.609-5.483-17.677T356.29,41.507a22.7,22.7,0,0,0-12.164,3.15,18.76,18.76,0,0,0-7.554,9.043h-0.934V42.79H322.512v63.881h13.593Zm96-80.653a8.743,8.743,0,0,0,2.771-6.68,8.746,8.746,0,0,0-2.771-6.68,11.054,11.054,0,0,0-14.234,0,8.742,8.742,0,0,0-2.771,6.68,8.739,8.739,0,0,0,2.771,6.68A11.053,11.053,0,0,0,432.1,26.018Zm19.981,69.8H432.014V42.79h-33.6V53.641h20.36V95.82h-21.06v10.851h54.371V95.82Zm31.737,10.851V69.451q0-7.292,4.113-11.668a14.3,14.3,0,0,1,10.938-4.375q6.592,0,9.772,3.734t3.179,11.434v38.1h13.593V65.251q0-11.609-5.484-17.677T504,41.507a22.7,22.7,0,0,0-12.164,3.15,18.767,18.767,0,0,0-7.555,9.043h-0.933V42.79H470.226v63.881h13.593Zm71.348-37.1q0-7.467,4.084-11.9t11.026-4.434q6.883,0,10.968,4.434t4.083,11.9v8.984q0,7.468-4.083,11.9t-10.968,4.434q-6.944,0-11.026-4.434t-4.084-11.9V69.568Zm36.083,54.721q7.788-6.417,7.788-17.676V42.79h-13.36V53.233h-1.166a15.27,15.27,0,0,0-6.768-8.459,22.348,22.348,0,0,0-11.959-3.092q-11.376,0-17.91,7.292t-6.534,20.01V79.427q0,12.66,6.417,19.981t17.5,7.322a23.022,23.022,0,0,0,12.193-3.122,15.021,15.021,0,0,0,6.825-8.43h1.167V106.73q0,6.708-3.967,10.209t-11.435,3.5a20.366,20.366,0,0,1-9.625-2.071,8.716,8.716,0,0,1-4.784-5.513h-13.3a17.129,17.129,0,0,0,8.254,13.068q7.38,4.784,19.281,4.784Q583.461,130.707,591.25,124.289ZM657.435,95.3a11.79,11.79,0,0,0-3.5-8.576,11.7,11.7,0,0,0-16.8,0,12.292,12.292,0,0,0,0,17.181,11.629,11.629,0,0,0,16.8,0A11.886,11.886,0,0,0,657.435,95.3Zm77.532-11.347a7.164,7.164,0,0,1,2.217,5.4,8.612,8.612,0,0,1-4.054,7.409q-4.056,2.8-10.647,2.8t-10.53-2.684a10.425,10.425,0,0,1-4.58-7.642V89.111h-9.8v0.583a16.4,16.4,0,0,0,7,13.272q6.708,4.931,17.676,4.929,11.317,0,18.319-5.542a17.64,17.64,0,0,0,7-14.526,13.433,13.433,0,0,0-3.558-9.567q-3.56-3.792-11.493-6.417L724.175,69.1q-5.193-1.691-7.439-3.792a6.824,6.824,0,0,1-2.246-5.192,8.314,8.314,0,0,1,3.88-7.059,17.053,17.053,0,0,1,10.063-2.742q5.892,0,9.335,2.567a10.134,10.134,0,0,1,3.967,7.409v0.175h9.626a3.711,3.711,0,0,1,.029-0.379,4.2,4.2,0,0,0,.029-0.437,16.414,16.414,0,0,0-6.476-12.835q-6.067-4.667-16.276-4.667-10.736,0-17.473,5.338A16.92,16.92,0,0,0,704.456,61.4a13.758,13.758,0,0,0,3.471,9.568q3.471,3.85,10.939,6.359l8.751,2.859Q732.75,81.819,734.967,83.948Zm58.631-40.4H776.68l-1.4,8.459h16.86l-6.417,34.77a28.469,28.469,0,0,0-.525,5.075q0,7.41,4.988,11.259t14.5,3.851q10.092,0,13.126-.584l1.4-8.4q-3.152.35-11.727,0.35-6.184,0-9.159-2.129t-2.975-6.5a15.1,15.1,0,0,1,.292-2.975l6.417-34.712h25.552l1.459-8.459H803.4L806.374,26.4h-9.8Zm80.828,61.43a17.486,17.486,0,0,0,7.38-7.409h0.583l-1.575,9.1h9.451l6.417-36.52a58.581,58.581,0,0,0,1.226-9.859A15.746,15.746,0,0,0,891.9,47.428q-6.01-4.87-15.927-4.871a28.844,28.844,0,0,0-16.656,4.755,19.144,19.144,0,0,0-8.488,12.339h9.918a11.1,11.1,0,0,1,5.192-6.155,17.44,17.44,0,0,1,9.1-2.363q5.892,0,9.421,2.888a9.477,9.477,0,0,1,3.53,7.73,24.481,24.481,0,0,1-.467,4.2l-0.583,3.209-15.752.117q-13.125.118-20.127,5.455t-6.942,15.2a16.921,16.921,0,0,0,5.367,12.864q5.308,4.93,13.71,4.929A22.921,22.921,0,0,0,874.426,104.979ZM857.654,96.17a9.406,9.406,0,0,1-3.267-7.642,9.912,9.912,0,0,1,4.4-8.547q4.345-3,12.339-3.063l14.526-.058-1.4,7.467a17.078,17.078,0,0,1-6.155,10.53,17.5,17.5,0,0,1-11.463,4.171Q860.978,99.029,857.654,96.17Zm83.658-52.622H924.393l-1.4,8.459h16.86l-6.417,34.77a28.469,28.469,0,0,0-.525,5.075q0,7.41,4.988,11.259t14.5,3.851q10.092,0,13.126-.584l1.4-8.4q-3.15.35-11.726,0.35-6.185,0-9.159-2.129t-2.975-6.5a15.1,15.1,0,0,1,.291-2.975l6.418-34.712h25.552l1.459-8.459H951.113L954.088,26.4h-9.8Zm89.088,40.4a7.187,7.187,0,0,1,2.21,5.4,8.612,8.612,0,0,1-4.05,7.409c-2.71,1.867-6.25,2.8-10.65,2.8s-7.9-.894-10.53-2.684a10.449,10.449,0,0,1-4.58-7.642V89.111H993v0.583a16.4,16.4,0,0,0,7,13.272q6.705,4.931,17.68,4.929,11.31,0,18.32-5.542a17.659,17.659,0,0,0,7-14.526,13.443,13.443,0,0,0-3.56-9.567q-3.57-3.792-11.5-6.417L1019.6,69.1q-5.19-1.691-7.44-3.792a6.844,6.844,0,0,1-2.24-5.192,8.307,8.307,0,0,1,3.88-7.059,17.037,17.037,0,0,1,10.06-2.742q5.895,0,9.34,2.567a10.141,10.141,0,0,1,3.96,7.409v0.175h9.63a3.791,3.791,0,0,1,.03-0.379,3.978,3.978,0,0,0,.03-0.437,16.424,16.424,0,0,0-6.48-12.835q-6.06-4.667-16.28-4.667-10.725,0-17.47,5.338A16.923,16.923,0,0,0,999.884,61.4a13.773,13.773,0,0,0,3.466,9.568q3.48,3.85,10.94,6.359l8.75,2.859Q1028.185,81.819,1030.4,83.948Z"/>
</svg>
